<svg width="16" height="16" viewBox="0 0 16 16" fill="none" xmlns="http://www.w3.org/2000/svg">
<g id=" more-vertical">
<path id="Icon" fill-rule="evenodd" clip-rule="evenodd" d="M8 4.66667C8.736 4.66667 9.33333 4.06933 9.33333 3.33333C9.33333 2.59733 8.736 2 8 2C7.264 2 6.66666 2.59733 6.66666 3.33333C6.66666 4.06933 7.264 4.66667 8 4.66667ZM8 6.66667C7.264 6.66667 6.66666 7.264 6.66666 8C6.66666 8.736 7.264 9.33333 8 9.33333C8.736 9.33333 9.33333 8.736 9.33333 8C9.33333 7.264 8.736 6.66667 8 6.66667ZM6.66666 12.6667C6.66666 11.9307 7.264 11.3333 8 11.3333C8.736 11.3333 9.33333 11.9307 9.33333 12.6667C9.33333 13.4027 8.736 14 8 14C7.264 14 6.66666 13.4027 6.66666 12.6667Z" fill="white"/>
</g>
</svg>
